<mxfile host="app.diagrams.net" modified="2021-12-04T15:39:35.784Z" agent="5.0 (Windows NT 10.0; Win64; x64) AppleWebKit/537.36 (KHTML, like Gecko) Chrome/96.0.4664.55 Safari/537.36 Edg/96.0.1054.43" etag="p3ghsLpXVwaBnVlzWeI5" version="15.9.1" type="github">
  <diagram id="UKxVlfVYk1nAeU5848VA" name="Page-1">
    <mxGraphModel dx="2523" dy="1996" grid="1" gridSize="10" guides="1" tooltips="1" connect="1" arrows="1" fold="1" page="1" pageScale="1" pageWidth="850" pageHeight="1100" math="0" shadow="0">
      <root>
        <mxCell id="0" />
        <mxCell id="1" parent="0" />
        <mxCell id="n4Uc8F7M5s01xIE8nHh5-90" style="edgeStyle=orthogonalEdgeStyle;rounded=0;orthogonalLoop=1;jettySize=auto;html=1;entryX=0.5;entryY=0;entryDx=0;entryDy=0;fontSize=15;" parent="1" source="n4Uc8F7M5s01xIE8nHh5-1" target="n4Uc8F7M5s01xIE8nHh5-9" edge="1">
          <mxGeometry relative="1" as="geometry" />
        </mxCell>
        <mxCell id="n4Uc8F7M5s01xIE8nHh5-91" value="seller" style="edgeLabel;html=1;align=center;verticalAlign=middle;resizable=0;points=[];fontSize=15;" parent="n4Uc8F7M5s01xIE8nHh5-90" vertex="1" connectable="0">
          <mxGeometry x="-0.1855" y="2" relative="1" as="geometry">
            <mxPoint as="offset" />
          </mxGeometry>
        </mxCell>
        <mxCell id="n4Uc8F7M5s01xIE8nHh5-1" value="Product" style="swimlane;fontStyle=0;childLayout=stackLayout;horizontal=1;startSize=26;fillColor=none;horizontalStack=0;resizeParent=1;resizeParentMax=0;resizeLast=0;collapsible=1;marginBottom=0;" parent="1" vertex="1">
          <mxGeometry x="40" y="114" width="140" height="182" as="geometry" />
        </mxCell>
        <mxCell id="n4Uc8F7M5s01xIE8nHh5-2" value="+ price" style="text;strokeColor=none;fillColor=none;align=left;verticalAlign=top;spacingLeft=4;spacingRight=4;overflow=hidden;rotatable=0;points=[[0,0.5],[1,0.5]];portConstraint=eastwest;" parent="n4Uc8F7M5s01xIE8nHh5-1" vertex="1">
          <mxGeometry y="26" width="140" height="26" as="geometry" />
        </mxCell>
        <mxCell id="RvIA3ay3EjmCJ0zNyyc8-17" value="+ currency" style="text;strokeColor=none;fillColor=none;align=left;verticalAlign=top;spacingLeft=4;spacingRight=4;overflow=hidden;rotatable=0;points=[[0,0.5],[1,0.5]];portConstraint=eastwest;" parent="n4Uc8F7M5s01xIE8nHh5-1" vertex="1">
          <mxGeometry y="52" width="140" height="26" as="geometry" />
        </mxCell>
        <mxCell id="n4Uc8F7M5s01xIE8nHh5-3" value="+ description" style="text;strokeColor=none;fillColor=none;align=left;verticalAlign=top;spacingLeft=4;spacingRight=4;overflow=hidden;rotatable=0;points=[[0,0.5],[1,0.5]];portConstraint=eastwest;" parent="n4Uc8F7M5s01xIE8nHh5-1" vertex="1">
          <mxGeometry y="78" width="140" height="26" as="geometry" />
        </mxCell>
        <mxCell id="n4Uc8F7M5s01xIE8nHh5-4" value="+ name" style="text;strokeColor=none;fillColor=none;align=left;verticalAlign=top;spacingLeft=4;spacingRight=4;overflow=hidden;rotatable=0;points=[[0,0.5],[1,0.5]];portConstraint=eastwest;" parent="n4Uc8F7M5s01xIE8nHh5-1" vertex="1">
          <mxGeometry y="104" width="140" height="26" as="geometry" />
        </mxCell>
        <mxCell id="n4Uc8F7M5s01xIE8nHh5-30" value="+ mediaPath" style="text;strokeColor=none;fillColor=none;align=left;verticalAlign=top;spacingLeft=4;spacingRight=4;overflow=hidden;rotatable=0;points=[[0,0.5],[1,0.5]];portConstraint=eastwest;" parent="n4Uc8F7M5s01xIE8nHh5-1" vertex="1">
          <mxGeometry y="130" width="140" height="26" as="geometry" />
        </mxCell>
        <mxCell id="n4Uc8F7M5s01xIE8nHh5-31" value="+ isActive" style="text;strokeColor=none;fillColor=none;align=left;verticalAlign=top;spacingLeft=4;spacingRight=4;overflow=hidden;rotatable=0;points=[[0,0.5],[1,0.5]];portConstraint=eastwest;" parent="n4Uc8F7M5s01xIE8nHh5-1" vertex="1">
          <mxGeometry y="156" width="140" height="26" as="geometry" />
        </mxCell>
        <mxCell id="n4Uc8F7M5s01xIE8nHh5-5" value="WebShop" style="swimlane;fontStyle=0;childLayout=stackLayout;horizontal=1;startSize=26;fillColor=none;horizontalStack=0;resizeParent=1;resizeParentMax=0;resizeLast=0;collapsible=1;marginBottom=0;" parent="1" vertex="1">
          <mxGeometry x="460" y="560" width="140" height="78" as="geometry" />
        </mxCell>
        <mxCell id="n4Uc8F7M5s01xIE8nHh5-6" value="+ name" style="text;strokeColor=none;fillColor=none;align=left;verticalAlign=top;spacingLeft=4;spacingRight=4;overflow=hidden;rotatable=0;points=[[0,0.5],[1,0.5]];portConstraint=eastwest;" parent="n4Uc8F7M5s01xIE8nHh5-5" vertex="1">
          <mxGeometry y="26" width="140" height="26" as="geometry" />
        </mxCell>
        <mxCell id="RvIA3ay3EjmCJ0zNyyc8-15" value="+ PSP_AccessToken" style="text;strokeColor=none;fillColor=none;align=left;verticalAlign=top;spacingLeft=4;spacingRight=4;overflow=hidden;rotatable=0;points=[[0,0.5],[1,0.5]];portConstraint=eastwest;" parent="n4Uc8F7M5s01xIE8nHh5-5" vertex="1">
          <mxGeometry y="52" width="140" height="26" as="geometry" />
        </mxCell>
        <mxCell id="n4Uc8F7M5s01xIE8nHh5-78" style="edgeStyle=orthogonalEdgeStyle;rounded=0;orthogonalLoop=1;jettySize=auto;html=1;entryX=0;entryY=0.5;entryDx=0;entryDy=0;" parent="1" source="n4Uc8F7M5s01xIE8nHh5-9" target="n4Uc8F7M5s01xIE8nHh5-25" edge="1">
          <mxGeometry relative="1" as="geometry">
            <Array as="points">
              <mxPoint x="300" y="432" />
            </Array>
          </mxGeometry>
        </mxCell>
        <mxCell id="n4Uc8F7M5s01xIE8nHh5-80" value="&lt;font style=&quot;font-size: 15px&quot;&gt;0:N&lt;/font&gt;" style="edgeLabel;html=1;align=center;verticalAlign=middle;resizable=0;points=[];" parent="n4Uc8F7M5s01xIE8nHh5-78" vertex="1" connectable="0">
          <mxGeometry x="0.2909" y="-3" relative="1" as="geometry">
            <mxPoint as="offset" />
          </mxGeometry>
        </mxCell>
        <mxCell id="n4Uc8F7M5s01xIE8nHh5-9" value="Profile" style="swimlane;fontStyle=0;childLayout=stackLayout;horizontal=1;startSize=26;fillColor=none;horizontalStack=0;resizeParent=1;resizeParentMax=0;resizeLast=0;collapsible=1;marginBottom=0;" parent="1" vertex="1">
          <mxGeometry x="50" y="406" width="140" height="104" as="geometry" />
        </mxCell>
        <mxCell id="n4Uc8F7M5s01xIE8nHh5-10" value="+ name" style="text;strokeColor=none;fillColor=none;align=left;verticalAlign=top;spacingLeft=4;spacingRight=4;overflow=hidden;rotatable=0;points=[[0,0.5],[1,0.5]];portConstraint=eastwest;" parent="n4Uc8F7M5s01xIE8nHh5-9" vertex="1">
          <mxGeometry y="26" width="140" height="26" as="geometry" />
        </mxCell>
        <mxCell id="n4Uc8F7M5s01xIE8nHh5-11" value="+ surname" style="text;strokeColor=none;fillColor=none;align=left;verticalAlign=top;spacingLeft=4;spacingRight=4;overflow=hidden;rotatable=0;points=[[0,0.5],[1,0.5]];portConstraint=eastwest;" parent="n4Uc8F7M5s01xIE8nHh5-9" vertex="1">
          <mxGeometry y="52" width="140" height="26" as="geometry" />
        </mxCell>
        <mxCell id="n4Uc8F7M5s01xIE8nHh5-32" value="+ mail" style="text;strokeColor=none;fillColor=none;align=left;verticalAlign=top;spacingLeft=4;spacingRight=4;overflow=hidden;rotatable=0;points=[[0,0.5],[1,0.5]];portConstraint=eastwest;" parent="n4Uc8F7M5s01xIE8nHh5-9" vertex="1">
          <mxGeometry y="78" width="140" height="26" as="geometry" />
        </mxCell>
        <mxCell id="n4Uc8F7M5s01xIE8nHh5-92" style="edgeStyle=orthogonalEdgeStyle;rounded=0;orthogonalLoop=1;jettySize=auto;html=1;entryX=1;entryY=0.5;entryDx=0;entryDy=0;fontSize=15;" parent="1" source="n4Uc8F7M5s01xIE8nHh5-17" target="n4Uc8F7M5s01xIE8nHh5-2" edge="1">
          <mxGeometry relative="1" as="geometry">
            <Array as="points">
              <mxPoint x="240" y="180" />
              <mxPoint x="240" y="153" />
            </Array>
          </mxGeometry>
        </mxCell>
        <mxCell id="n4Uc8F7M5s01xIE8nHh5-93" style="edgeStyle=orthogonalEdgeStyle;rounded=0;orthogonalLoop=1;jettySize=auto;html=1;fontSize=15;" parent="1" source="n4Uc8F7M5s01xIE8nHh5-17" edge="1">
          <mxGeometry relative="1" as="geometry">
            <mxPoint x="160" y="406" as="targetPoint" />
            <Array as="points">
              <mxPoint x="330" y="250" />
              <mxPoint x="220" y="250" />
              <mxPoint x="220" y="360" />
              <mxPoint x="160" y="360" />
            </Array>
          </mxGeometry>
        </mxCell>
        <mxCell id="n4Uc8F7M5s01xIE8nHh5-94" value="buyer" style="edgeLabel;html=1;align=center;verticalAlign=middle;resizable=0;points=[];fontSize=15;" parent="n4Uc8F7M5s01xIE8nHh5-93" vertex="1" connectable="0">
          <mxGeometry x="0.2185" y="1" relative="1" as="geometry">
            <mxPoint as="offset" />
          </mxGeometry>
        </mxCell>
        <mxCell id="n4Uc8F7M5s01xIE8nHh5-115" style="edgeStyle=orthogonalEdgeStyle;rounded=0;orthogonalLoop=1;jettySize=auto;html=1;entryX=0.5;entryY=0;entryDx=0;entryDy=0;fontSize=15;" parent="1" source="n4Uc8F7M5s01xIE8nHh5-17" target="n4Uc8F7M5s01xIE8nHh5-21" edge="1">
          <mxGeometry relative="1" as="geometry">
            <Array as="points">
              <mxPoint x="370" y="270" />
              <mxPoint x="600" y="270" />
            </Array>
          </mxGeometry>
        </mxCell>
        <mxCell id="5tpcHCuhw4KkP-4gjfUr-6" style="edgeStyle=orthogonalEdgeStyle;rounded=0;orthogonalLoop=1;jettySize=auto;html=1;entryX=0;entryY=0.5;entryDx=0;entryDy=0;" edge="1" parent="1" source="n4Uc8F7M5s01xIE8nHh5-17" target="5tpcHCuhw4KkP-4gjfUr-2">
          <mxGeometry relative="1" as="geometry">
            <Array as="points">
              <mxPoint x="370" y="66" />
              <mxPoint x="280" y="66" />
              <mxPoint x="280" y="-21" />
            </Array>
          </mxGeometry>
        </mxCell>
        <mxCell id="5tpcHCuhw4KkP-4gjfUr-7" value="&lt;font style=&quot;font-size: 15px&quot;&gt;0:N&lt;/font&gt;" style="edgeLabel;html=1;align=center;verticalAlign=middle;resizable=0;points=[];" vertex="1" connectable="0" parent="5tpcHCuhw4KkP-4gjfUr-6">
          <mxGeometry x="0.0597" y="-2" relative="1" as="geometry">
            <mxPoint as="offset" />
          </mxGeometry>
        </mxCell>
        <mxCell id="n4Uc8F7M5s01xIE8nHh5-17" value="Order" style="swimlane;fontStyle=0;childLayout=stackLayout;horizontal=1;startSize=26;fillColor=none;horizontalStack=0;resizeParent=1;resizeParentMax=0;resizeLast=0;collapsible=1;marginBottom=0;" parent="1" vertex="1">
          <mxGeometry x="300" y="140" width="140" height="52" as="geometry" />
        </mxCell>
        <mxCell id="n4Uc8F7M5s01xIE8nHh5-18" value="+ timestamp" style="text;strokeColor=none;fillColor=none;align=left;verticalAlign=top;spacingLeft=4;spacingRight=4;overflow=hidden;rotatable=0;points=[[0,0.5],[1,0.5]];portConstraint=eastwest;" parent="n4Uc8F7M5s01xIE8nHh5-17" vertex="1">
          <mxGeometry y="26" width="140" height="26" as="geometry" />
        </mxCell>
        <mxCell id="n4Uc8F7M5s01xIE8nHh5-21" value="PaymentType" style="swimlane;fontStyle=0;childLayout=stackLayout;horizontal=1;startSize=26;fillColor=none;horizontalStack=0;resizeParent=1;resizeParentMax=0;resizeLast=0;collapsible=1;marginBottom=0;" parent="1" vertex="1">
          <mxGeometry x="520" y="420" width="160" height="52" as="geometry" />
        </mxCell>
        <mxCell id="n4Uc8F7M5s01xIE8nHh5-22" value="+ name" style="text;strokeColor=none;fillColor=none;align=left;verticalAlign=top;spacingLeft=4;spacingRight=4;overflow=hidden;rotatable=0;points=[[0,0.5],[1,0.5]];portConstraint=eastwest;" parent="n4Uc8F7M5s01xIE8nHh5-21" vertex="1">
          <mxGeometry y="26" width="160" height="26" as="geometry" />
        </mxCell>
        <mxCell id="n4Uc8F7M5s01xIE8nHh5-113" style="edgeStyle=orthogonalEdgeStyle;rounded=0;orthogonalLoop=1;jettySize=auto;html=1;entryX=0;entryY=0.5;entryDx=0;entryDy=0;fontSize=15;" parent="1" source="n4Uc8F7M5s01xIE8nHh5-25" target="n4Uc8F7M5s01xIE8nHh5-22" edge="1">
          <mxGeometry relative="1" as="geometry" />
        </mxCell>
        <mxCell id="n4Uc8F7M5s01xIE8nHh5-25" value="Account" style="swimlane;fontStyle=0;childLayout=stackLayout;horizontal=1;startSize=26;fillColor=none;horizontalStack=0;resizeParent=1;resizeParentMax=0;resizeLast=0;collapsible=1;marginBottom=0;" parent="1" vertex="1">
          <mxGeometry x="320" y="406" width="140" height="78" as="geometry" />
        </mxCell>
        <mxCell id="n4Uc8F7M5s01xIE8nHh5-26" value="+ ID" style="text;strokeColor=none;fillColor=none;align=left;verticalAlign=top;spacingLeft=4;spacingRight=4;overflow=hidden;rotatable=0;points=[[0,0.5],[1,0.5]];portConstraint=eastwest;" parent="n4Uc8F7M5s01xIE8nHh5-25" vertex="1">
          <mxGeometry y="26" width="140" height="26" as="geometry" />
        </mxCell>
        <mxCell id="RvIA3ay3EjmCJ0zNyyc8-16" value="+ secret" style="text;strokeColor=none;fillColor=none;align=left;verticalAlign=top;spacingLeft=4;spacingRight=4;overflow=hidden;rotatable=0;points=[[0,0.5],[1,0.5]];portConstraint=eastwest;" parent="n4Uc8F7M5s01xIE8nHh5-25" vertex="1">
          <mxGeometry y="52" width="140" height="26" as="geometry" />
        </mxCell>
        <mxCell id="n4Uc8F7M5s01xIE8nHh5-61" style="edgeStyle=orthogonalEdgeStyle;rounded=0;orthogonalLoop=1;jettySize=auto;html=1;entryX=0;entryY=0.5;entryDx=0;entryDy=0;" parent="1" source="n4Uc8F7M5s01xIE8nHh5-33" target="n4Uc8F7M5s01xIE8nHh5-38" edge="1">
          <mxGeometry relative="1" as="geometry" />
        </mxCell>
        <mxCell id="n4Uc8F7M5s01xIE8nHh5-112" value="1:N" style="edgeLabel;html=1;align=center;verticalAlign=middle;resizable=0;points=[];fontSize=15;" parent="n4Uc8F7M5s01xIE8nHh5-61" vertex="1" connectable="0">
          <mxGeometry x="-0.2612" y="2" relative="1" as="geometry">
            <mxPoint as="offset" />
          </mxGeometry>
        </mxCell>
        <mxCell id="n4Uc8F7M5s01xIE8nHh5-77" style="edgeStyle=orthogonalEdgeStyle;rounded=0;orthogonalLoop=1;jettySize=auto;html=1;entryX=0.429;entryY=0.962;entryDx=0;entryDy=0;entryPerimeter=0;" parent="1" source="n4Uc8F7M5s01xIE8nHh5-33" target="n4Uc8F7M5s01xIE8nHh5-32" edge="1">
          <mxGeometry relative="1" as="geometry" />
        </mxCell>
        <mxCell id="n4Uc8F7M5s01xIE8nHh5-33" value="User" style="swimlane;fontStyle=0;childLayout=stackLayout;horizontal=1;startSize=26;fillColor=none;horizontalStack=0;resizeParent=1;resizeParentMax=0;resizeLast=0;collapsible=1;marginBottom=0;" parent="1" vertex="1">
          <mxGeometry x="90" y="678" width="140" height="208" as="geometry" />
        </mxCell>
        <mxCell id="n4Uc8F7M5s01xIE8nHh5-34" value="+ username" style="text;strokeColor=none;fillColor=none;align=left;verticalAlign=top;spacingLeft=4;spacingRight=4;overflow=hidden;rotatable=0;points=[[0,0.5],[1,0.5]];portConstraint=eastwest;" parent="n4Uc8F7M5s01xIE8nHh5-33" vertex="1">
          <mxGeometry y="26" width="140" height="26" as="geometry" />
        </mxCell>
        <mxCell id="n4Uc8F7M5s01xIE8nHh5-35" value="+ password" style="text;strokeColor=none;fillColor=none;align=left;verticalAlign=top;spacingLeft=4;spacingRight=4;overflow=hidden;rotatable=0;points=[[0,0.5],[1,0.5]];portConstraint=eastwest;" parent="n4Uc8F7M5s01xIE8nHh5-33" vertex="1">
          <mxGeometry y="52" width="140" height="26" as="geometry" />
        </mxCell>
        <mxCell id="n4Uc8F7M5s01xIE8nHh5-52" value="+ salt" style="text;strokeColor=none;fillColor=none;align=left;verticalAlign=top;spacingLeft=4;spacingRight=4;overflow=hidden;rotatable=0;points=[[0,0.5],[1,0.5]];portConstraint=eastwest;" parent="n4Uc8F7M5s01xIE8nHh5-33" vertex="1">
          <mxGeometry y="78" width="140" height="26" as="geometry" />
        </mxCell>
        <mxCell id="n4Uc8F7M5s01xIE8nHh5-36" value="+ isDeleted" style="text;strokeColor=none;fillColor=none;align=left;verticalAlign=top;spacingLeft=4;spacingRight=4;overflow=hidden;rotatable=0;points=[[0,0.5],[1,0.5]];portConstraint=eastwest;" parent="n4Uc8F7M5s01xIE8nHh5-33" vertex="1">
          <mxGeometry y="104" width="140" height="26" as="geometry" />
        </mxCell>
        <mxCell id="n4Uc8F7M5s01xIE8nHh5-53" value="+ validUntil" style="text;strokeColor=none;fillColor=none;align=left;verticalAlign=top;spacingLeft=4;spacingRight=4;overflow=hidden;rotatable=0;points=[[0,0.5],[1,0.5]];portConstraint=eastwest;" parent="n4Uc8F7M5s01xIE8nHh5-33" vertex="1">
          <mxGeometry y="130" width="140" height="26" as="geometry" />
        </mxCell>
        <mxCell id="n4Uc8F7M5s01xIE8nHh5-54" value="+ resetPasswordUUID" style="text;strokeColor=none;fillColor=none;align=left;verticalAlign=top;spacingLeft=4;spacingRight=4;overflow=hidden;rotatable=0;points=[[0,0.5],[1,0.5]];portConstraint=eastwest;" parent="n4Uc8F7M5s01xIE8nHh5-33" vertex="1">
          <mxGeometry y="156" width="140" height="26" as="geometry" />
        </mxCell>
        <mxCell id="n4Uc8F7M5s01xIE8nHh5-67" value="+ profileID" style="text;strokeColor=none;fillColor=none;align=left;verticalAlign=top;spacingLeft=4;spacingRight=4;overflow=hidden;rotatable=0;points=[[0,0.5],[1,0.5]];portConstraint=eastwest;" parent="n4Uc8F7M5s01xIE8nHh5-33" vertex="1">
          <mxGeometry y="182" width="140" height="26" as="geometry" />
        </mxCell>
        <mxCell id="n4Uc8F7M5s01xIE8nHh5-60" style="edgeStyle=orthogonalEdgeStyle;rounded=0;orthogonalLoop=1;jettySize=auto;html=1;entryX=0;entryY=0.5;entryDx=0;entryDy=0;" parent="1" source="n4Uc8F7M5s01xIE8nHh5-37" target="n4Uc8F7M5s01xIE8nHh5-42" edge="1">
          <mxGeometry relative="1" as="geometry" />
        </mxCell>
        <mxCell id="n4Uc8F7M5s01xIE8nHh5-82" value="0:N" style="edgeLabel;html=1;align=center;verticalAlign=middle;resizable=0;points=[];fontSize=15;" parent="n4Uc8F7M5s01xIE8nHh5-60" vertex="1" connectable="0">
          <mxGeometry x="0.3784" y="-1" relative="1" as="geometry">
            <mxPoint as="offset" />
          </mxGeometry>
        </mxCell>
        <mxCell id="n4Uc8F7M5s01xIE8nHh5-37" value="Role" style="swimlane;fontStyle=0;childLayout=stackLayout;horizontal=1;startSize=26;fillColor=none;horizontalStack=0;resizeParent=1;resizeParentMax=0;resizeLast=0;collapsible=1;marginBottom=0;" parent="1" vertex="1">
          <mxGeometry x="320" y="743" width="140" height="52" as="geometry" />
        </mxCell>
        <mxCell id="n4Uc8F7M5s01xIE8nHh5-38" value="+ name" style="text;strokeColor=none;fillColor=none;align=left;verticalAlign=top;spacingLeft=4;spacingRight=4;overflow=hidden;rotatable=0;points=[[0,0.5],[1,0.5]];portConstraint=eastwest;" parent="n4Uc8F7M5s01xIE8nHh5-37" vertex="1">
          <mxGeometry y="26" width="140" height="26" as="geometry" />
        </mxCell>
        <mxCell id="n4Uc8F7M5s01xIE8nHh5-41" value="Privilege" style="swimlane;fontStyle=0;childLayout=stackLayout;horizontal=1;startSize=26;fillColor=none;horizontalStack=0;resizeParent=1;resizeParentMax=0;resizeLast=0;collapsible=1;marginBottom=0;" parent="1" vertex="1">
          <mxGeometry x="550" y="760" width="140" height="52" as="geometry" />
        </mxCell>
        <mxCell id="n4Uc8F7M5s01xIE8nHh5-42" value="+ name" style="text;strokeColor=none;fillColor=none;align=left;verticalAlign=top;spacingLeft=4;spacingRight=4;overflow=hidden;rotatable=0;points=[[0,0.5],[1,0.5]];portConstraint=eastwest;" parent="n4Uc8F7M5s01xIE8nHh5-41" vertex="1">
          <mxGeometry y="26" width="140" height="26" as="geometry" />
        </mxCell>
        <mxCell id="n4Uc8F7M5s01xIE8nHh5-95" value="OrderType" style="swimlane;fontStyle=0;childLayout=stackLayout;horizontal=1;startSize=26;fillColor=none;horizontalStack=0;resizeParent=1;resizeParentMax=0;resizeLast=0;collapsible=1;marginBottom=0;fontSize=12;" parent="1" vertex="1">
          <mxGeometry x="570" y="100" width="140" height="156" as="geometry" />
        </mxCell>
        <mxCell id="n4Uc8F7M5s01xIE8nHh5-96" value="+ PLACED" style="text;strokeColor=none;fillColor=none;align=left;verticalAlign=top;spacingLeft=4;spacingRight=4;overflow=hidden;rotatable=0;points=[[0,0.5],[1,0.5]];portConstraint=eastwest;fontSize=12;" parent="n4Uc8F7M5s01xIE8nHh5-95" vertex="1">
          <mxGeometry y="26" width="140" height="26" as="geometry" />
        </mxCell>
        <mxCell id="n4Uc8F7M5s01xIE8nHh5-98" value="+ CANCELED" style="text;strokeColor=none;fillColor=none;align=left;verticalAlign=top;spacingLeft=4;spacingRight=4;overflow=hidden;rotatable=0;points=[[0,0.5],[1,0.5]];portConstraint=eastwest;fontSize=12;" parent="n4Uc8F7M5s01xIE8nHh5-95" vertex="1">
          <mxGeometry y="52" width="140" height="26" as="geometry" />
        </mxCell>
        <mxCell id="n4Uc8F7M5s01xIE8nHh5-97" value="+ FULLFILLED" style="text;strokeColor=none;fillColor=none;align=left;verticalAlign=top;spacingLeft=4;spacingRight=4;overflow=hidden;rotatable=0;points=[[0,0.5],[1,0.5]];portConstraint=eastwest;fontSize=12;" parent="n4Uc8F7M5s01xIE8nHh5-95" vertex="1">
          <mxGeometry y="78" width="140" height="26" as="geometry" />
        </mxCell>
        <mxCell id="RvIA3ay3EjmCJ0zNyyc8-18" value="+ FAILED" style="text;strokeColor=none;fillColor=none;align=left;verticalAlign=top;spacingLeft=4;spacingRight=4;overflow=hidden;rotatable=0;points=[[0,0.5],[1,0.5]];portConstraint=eastwest;fontSize=12;" parent="n4Uc8F7M5s01xIE8nHh5-95" vertex="1">
          <mxGeometry y="104" width="140" height="26" as="geometry" />
        </mxCell>
        <mxCell id="RvIA3ay3EjmCJ0zNyyc8-22" value="+ ERROR" style="text;strokeColor=none;fillColor=none;align=left;verticalAlign=top;spacingLeft=4;spacingRight=4;overflow=hidden;rotatable=0;points=[[0,0.5],[1,0.5]];portConstraint=eastwest;fontSize=12;" parent="n4Uc8F7M5s01xIE8nHh5-95" vertex="1">
          <mxGeometry y="130" width="140" height="26" as="geometry" />
        </mxCell>
        <mxCell id="n4Uc8F7M5s01xIE8nHh5-114" style="edgeStyle=orthogonalEdgeStyle;rounded=0;orthogonalLoop=1;jettySize=auto;html=1;entryX=1;entryY=0.5;entryDx=0;entryDy=0;fontSize=15;exitX=0.25;exitY=0;exitDx=0;exitDy=0;" parent="1" source="n4Uc8F7M5s01xIE8nHh5-5" target="n4Uc8F7M5s01xIE8nHh5-22" edge="1">
          <mxGeometry relative="1" as="geometry">
            <Array as="points">
              <mxPoint x="495" y="520" />
              <mxPoint x="700" y="520" />
              <mxPoint x="700" y="459" />
            </Array>
          </mxGeometry>
        </mxCell>
        <mxCell id="n4Uc8F7M5s01xIE8nHh5-117" value="0:N" style="edgeLabel;html=1;align=center;verticalAlign=middle;resizable=0;points=[];fontSize=15;" parent="n4Uc8F7M5s01xIE8nHh5-114" vertex="1" connectable="0">
          <mxGeometry x="-0.2019" y="-1" relative="1" as="geometry">
            <mxPoint as="offset" />
          </mxGeometry>
        </mxCell>
        <mxCell id="RvIA3ay3EjmCJ0zNyyc8-10" value="&lt;h1&gt;&lt;font style=&quot;font-size: 22px&quot;&gt;WebShopOrder&amp;nbsp;&lt;/font&gt;&lt;/h1&gt;&lt;p style=&quot;font-size: 16px&quot;&gt;&lt;font style=&quot;font-size: 16px&quot;&gt;{&lt;/font&gt;&lt;/p&gt;&lt;p style=&quot;font-size: 16px&quot;&gt;&lt;font style=&quot;font-size: 16px&quot;&gt;&lt;span style=&quot;white-space: pre&quot;&gt; &lt;/span&gt;AccessToken : string&lt;br&gt;&lt;/font&gt;&lt;/p&gt;&lt;p style=&quot;font-size: 16px&quot;&gt;&lt;font style=&quot;font-size: 16px&quot;&gt;&lt;span style=&quot;white-space: pre&quot;&gt; &lt;/span&gt;PSPOrderId : UUID&lt;br&gt;&lt;/font&gt;&lt;/p&gt;&lt;p style=&quot;font-size: 16px&quot;&gt;&lt;span style=&quot;white-space: pre&quot;&gt; &lt;/span&gt;Amount : float&lt;br&gt;&lt;/p&gt;&lt;p style=&quot;font-size: 16px&quot;&gt;&lt;span style=&quot;white-space: pre&quot;&gt; &lt;/span&gt;Currency: string&lt;br&gt;&lt;/p&gt;&lt;p style=&quot;font-size: 16px&quot;&gt;&lt;span style=&quot;white-space: pre&quot;&gt; &lt;/span&gt;(optional) PaymentMode : &quot;ONE_TIME&quot; : default | &quot;RECURRING&quot;&amp;nbsp;&lt;br&gt;&lt;/p&gt;&lt;p style=&quot;font-size: 16px&quot;&gt;&lt;span style=&quot;white-space: pre&quot;&gt; &lt;/span&gt;(optional) RecurringType: &quot;MONTHLY&quot; |&amp;nbsp;&lt;span&gt;&quot;YEARLY&quot;&lt;/span&gt;&lt;/p&gt;&lt;p style=&quot;font-size: 16px&quot;&gt;&lt;span&gt;&lt;span style=&quot;white-space: pre&quot;&gt; &lt;/span&gt;(optional) RecurringTimes:&amp;nbsp; string &lt;span style=&quot;white-space: pre&quot;&gt; &lt;/span&gt;(&quot;SUBSCRIPTION&quot; |&amp;nbsp; 1..N as string)&lt;br&gt;&lt;/span&gt;&lt;/p&gt;&lt;p style=&quot;font-size: 16px&quot;&gt;&lt;span&gt;&amp;nbsp; (optional) RecurringDelayedPayment: int&amp;nbsp;&lt;/span&gt;&lt;/p&gt;&lt;p style=&quot;font-size: 16px&quot;&gt;&lt;span&gt;&lt;span style=&quot;white-space: pre&quot;&gt; &lt;/span&gt;(optional) PaymentTypes : list [ string ] &lt;span style=&quot;white-space: pre&quot;&gt; &lt;/span&gt;(&quot;ALL&quot; : default, ...)&lt;/span&gt;&lt;/p&gt;&lt;p style=&quot;font-size: 16px&quot;&gt;&lt;span&gt;&lt;span style=&quot;white-space: pre&quot;&gt; &lt;/span&gt;(optional) PaymentTo: {&lt;br&gt;&lt;/span&gt;&lt;/p&gt;&lt;p style=&quot;font-size: 16px&quot;&gt;&lt;span&gt;&lt;span style=&quot;white-space: pre&quot;&gt; &lt;/span&gt;&lt;span style=&quot;white-space: pre&quot;&gt; &lt;/span&gt;&amp;nbsp;keys: &quot;PAYPAL&quot; | &quot;BITCOIN&quot; | &lt;span style=&quot;white-space: pre&quot;&gt; &lt;/span&gt;&lt;span style=&quot;white-space: pre&quot;&gt; &lt;/span&gt;&quot;CREDIT_CARD&quot;&lt;br&gt;&lt;/span&gt;&lt;/p&gt;&lt;p style=&quot;font-size: 16px&quot;&gt;&lt;span&gt;&lt;span style=&quot;white-space: pre&quot;&gt; &lt;/span&gt;&lt;span style=&quot;white-space: pre&quot;&gt; &lt;/span&gt;values: {&lt;br&gt;&lt;/span&gt;&lt;/p&gt;&lt;p style=&quot;font-size: 16px&quot;&gt;&lt;span&gt;&lt;span style=&quot;white-space: pre&quot;&gt; &lt;/span&gt;&lt;span style=&quot;white-space: pre&quot;&gt; &lt;/span&gt;&lt;span style=&quot;white-space: pre&quot;&gt; &lt;/span&gt;&quot;MERCHANT_ID&quot; : string ,&lt;br&gt;&lt;/span&gt;&lt;/p&gt;&lt;p style=&quot;font-size: 16px&quot;&gt;&lt;span&gt;&lt;span style=&quot;white-space: pre&quot;&gt; &lt;/span&gt;&lt;span style=&quot;white-space: pre&quot;&gt; &lt;/span&gt;&lt;span style=&quot;white-space: pre&quot;&gt; &lt;/span&gt;(optional) &quot;MERCHANT_SECRET&quot; : string&lt;br&gt;&lt;/span&gt;&lt;/p&gt;&lt;p style=&quot;font-size: 16px&quot;&gt;&lt;span&gt;&lt;span style=&quot;white-space: pre&quot;&gt; &lt;/span&gt;&lt;span style=&quot;white-space: pre&quot;&gt; &lt;/span&gt;}&lt;br&gt;&lt;/span&gt;&lt;/p&gt;&lt;p style=&quot;font-size: 16px&quot;&gt;&lt;span&gt;&lt;span style=&quot;white-space: pre&quot;&gt; &lt;/span&gt;}&lt;br&gt;&lt;/span&gt;&lt;/p&gt;&lt;p style=&quot;font-size: 16px&quot;&gt;&lt;span&gt;&lt;span style=&quot;white-space: pre&quot;&gt; &lt;/span&gt;SuccessUrl: string&lt;br&gt;&lt;/span&gt;&lt;/p&gt;&lt;p style=&quot;font-size: 16px&quot;&gt;&lt;span&gt;&lt;span style=&quot;white-space: pre&quot;&gt; &lt;/span&gt;FailedUrl: string&lt;br&gt;&lt;/span&gt;&lt;/p&gt;&lt;p style=&quot;font-size: 16px&quot;&gt;&lt;span&gt;&lt;span style=&quot;white-space: pre&quot;&gt; &lt;/span&gt;ErrorUrl : string&lt;br&gt;&lt;/span&gt;&lt;/p&gt;&lt;p style=&quot;font-size: 16px&quot;&gt;&lt;span&gt;&lt;span style=&quot;white-space: pre&quot;&gt; &lt;/span&gt;MerchantOrderId: number&lt;br&gt;&lt;/span&gt;&lt;/p&gt;&lt;p style=&quot;font-size: 16px&quot;&gt;&lt;span&gt;&lt;span style=&quot;white-space: pre&quot;&gt; &lt;/span&gt;MerchantTimestamp: datetime&lt;br&gt;&lt;/span&gt;&lt;/p&gt;&lt;p style=&quot;font-size: 16px&quot;&gt;&lt;font style=&quot;font-size: 16px&quot;&gt;}&lt;/font&gt;&lt;/p&gt;" style="text;html=1;strokeColor=none;fillColor=none;spacing=5;spacingTop=-20;whiteSpace=wrap;overflow=hidden;rounded=0;" parent="1" vertex="1">
          <mxGeometry x="-760" y="90" width="430" height="910" as="geometry" />
        </mxCell>
        <mxCell id="RvIA3ay3EjmCJ0zNyyc8-11" value="&lt;h1 style=&quot;font-size: 24px&quot;&gt;Get: NewPSPOrderId&lt;/h1&gt;&lt;div&gt;{&lt;/div&gt;&lt;div&gt;&lt;span style=&quot;white-space: pre&quot;&gt; &lt;/span&gt;AccessToken: string&lt;br&gt;&lt;/div&gt;&lt;div&gt;}&lt;/div&gt;" style="text;html=1;strokeColor=none;fillColor=none;spacing=5;spacingTop=-20;whiteSpace=wrap;overflow=hidden;rounded=0;fontSize=16;" parent="1" vertex="1">
          <mxGeometry x="-260" y="106" width="250" height="134" as="geometry" />
        </mxCell>
        <mxCell id="RvIA3ay3EjmCJ0zNyyc8-13" value="&lt;h1 style=&quot;font-size: 24px&quot;&gt;PSPOrderProcessed&lt;/h1&gt;&lt;div&gt;{&lt;/div&gt;&lt;div&gt;&lt;span style=&quot;white-space: pre&quot;&gt;   &lt;/span&gt;PSPOrderId: UUID&lt;br&gt;&lt;/div&gt;&lt;div&gt;&lt;span style=&quot;white-space: pre&quot;&gt;   &lt;/span&gt;Status : string &lt;span style=&quot;white-space: pre&quot;&gt;     &lt;/span&gt;(&quot;FULLFILLED&amp;nbsp;&amp;nbsp;|&amp;nbsp;&quot;FAILED&quot; | &lt;span style=&quot;white-space: pre&quot;&gt; &lt;/span&gt;&lt;span style=&quot;white-space: pre&quot;&gt;     &lt;/span&gt;&quot;ERROR&quot;)&lt;/div&gt;&lt;div&gt;}&lt;/div&gt;" style="text;html=1;strokeColor=none;fillColor=none;spacing=5;spacingTop=-20;whiteSpace=wrap;overflow=hidden;rounded=0;fontSize=16;" parent="1" vertex="1">
          <mxGeometry x="-260" y="300" width="260" height="180" as="geometry" />
        </mxCell>
        <mxCell id="5tpcHCuhw4KkP-4gjfUr-5" style="edgeStyle=orthogonalEdgeStyle;rounded=0;orthogonalLoop=1;jettySize=auto;html=1;entryX=0.5;entryY=0;entryDx=0;entryDy=0;" edge="1" parent="1" source="5tpcHCuhw4KkP-4gjfUr-1" target="n4Uc8F7M5s01xIE8nHh5-95">
          <mxGeometry relative="1" as="geometry" />
        </mxCell>
        <mxCell id="5tpcHCuhw4KkP-4gjfUr-1" value="PSP_Order" style="swimlane;fontStyle=0;childLayout=stackLayout;horizontal=1;startSize=26;fillColor=none;horizontalStack=0;resizeParent=1;resizeParentMax=0;resizeLast=0;collapsible=1;marginBottom=0;" vertex="1" parent="1">
          <mxGeometry x="350" y="-60" width="140" height="78" as="geometry" />
        </mxCell>
        <mxCell id="5tpcHCuhw4KkP-4gjfUr-2" value="+ PSP_Id" style="text;strokeColor=none;fillColor=none;align=left;verticalAlign=top;spacingLeft=4;spacingRight=4;overflow=hidden;rotatable=0;points=[[0,0.5],[1,0.5]];portConstraint=eastwest;" vertex="1" parent="5tpcHCuhw4KkP-4gjfUr-1">
          <mxGeometry y="26" width="140" height="26" as="geometry" />
        </mxCell>
        <mxCell id="5tpcHCuhw4KkP-4gjfUr-8" value="+ timestamp" style="text;strokeColor=none;fillColor=none;align=left;verticalAlign=top;spacingLeft=4;spacingRight=4;overflow=hidden;rotatable=0;points=[[0,0.5],[1,0.5]];portConstraint=eastwest;" vertex="1" parent="5tpcHCuhw4KkP-4gjfUr-1">
          <mxGeometry y="52" width="140" height="26" as="geometry" />
        </mxCell>
        <mxCell id="5tpcHCuhw4KkP-4gjfUr-38" style="edgeStyle=orthogonalEdgeStyle;rounded=0;orthogonalLoop=1;jettySize=auto;html=1;entryX=0.5;entryY=0;entryDx=0;entryDy=0;fontSize=15;" edge="1" parent="1" source="5tpcHCuhw4KkP-4gjfUr-20" target="5tpcHCuhw4KkP-4gjfUr-33">
          <mxGeometry relative="1" as="geometry" />
        </mxCell>
        <mxCell id="5tpcHCuhw4KkP-4gjfUr-41" value="0:N" style="edgeLabel;html=1;align=center;verticalAlign=middle;resizable=0;points=[];fontSize=15;" vertex="1" connectable="0" parent="5tpcHCuhw4KkP-4gjfUr-38">
          <mxGeometry x="0.1034" y="3" relative="1" as="geometry">
            <mxPoint as="offset" />
          </mxGeometry>
        </mxCell>
        <mxCell id="5tpcHCuhw4KkP-4gjfUr-48" style="edgeStyle=orthogonalEdgeStyle;rounded=0;orthogonalLoop=1;jettySize=auto;html=1;entryX=0;entryY=0.25;entryDx=0;entryDy=0;fontSize=12;" edge="1" parent="1" source="5tpcHCuhw4KkP-4gjfUr-20" target="5tpcHCuhw4KkP-4gjfUr-43">
          <mxGeometry relative="1" as="geometry">
            <Array as="points">
              <mxPoint x="-390" y="-400" />
              <mxPoint x="-390" y="-465" />
            </Array>
          </mxGeometry>
        </mxCell>
        <mxCell id="5tpcHCuhw4KkP-4gjfUr-49" value="&lt;font style=&quot;font-size: 15px&quot;&gt;0:N&lt;/font&gt;" style="edgeLabel;html=1;align=center;verticalAlign=middle;resizable=0;points=[];fontSize=12;" vertex="1" connectable="0" parent="5tpcHCuhw4KkP-4gjfUr-48">
          <mxGeometry x="-0.4717" y="-1" relative="1" as="geometry">
            <mxPoint as="offset" />
          </mxGeometry>
        </mxCell>
        <mxCell id="5tpcHCuhw4KkP-4gjfUr-20" value="WebShop" style="swimlane;fontStyle=0;childLayout=stackLayout;horizontal=1;startSize=26;fillColor=none;horizontalStack=0;resizeParent=1;resizeParentMax=0;resizeLast=0;collapsible=1;marginBottom=0;" vertex="1" parent="1">
          <mxGeometry x="-590" y="-422" width="140" height="104" as="geometry" />
        </mxCell>
        <mxCell id="5tpcHCuhw4KkP-4gjfUr-21" value="+ name" style="text;strokeColor=none;fillColor=none;align=left;verticalAlign=top;spacingLeft=4;spacingRight=4;overflow=hidden;rotatable=0;points=[[0,0.5],[1,0.5]];portConstraint=eastwest;" vertex="1" parent="5tpcHCuhw4KkP-4gjfUr-20">
          <mxGeometry y="26" width="140" height="26" as="geometry" />
        </mxCell>
        <mxCell id="5tpcHCuhw4KkP-4gjfUr-22" value="+ PSP_AccessToken" style="text;strokeColor=none;fillColor=none;align=left;verticalAlign=top;spacingLeft=4;spacingRight=4;overflow=hidden;rotatable=0;points=[[0,0.5],[1,0.5]];portConstraint=eastwest;" vertex="1" parent="5tpcHCuhw4KkP-4gjfUr-20">
          <mxGeometry y="52" width="140" height="26" as="geometry" />
        </mxCell>
        <mxCell id="5tpcHCuhw4KkP-4gjfUr-28" value="+ accepted" style="text;strokeColor=none;fillColor=none;align=left;verticalAlign=top;spacingLeft=4;spacingRight=4;overflow=hidden;rotatable=0;points=[[0,0.5],[1,0.5]];portConstraint=eastwest;" vertex="1" parent="5tpcHCuhw4KkP-4gjfUr-20">
          <mxGeometry y="78" width="140" height="26" as="geometry" />
        </mxCell>
        <mxCell id="5tpcHCuhw4KkP-4gjfUr-23" value="PaymentType" style="swimlane;fontStyle=0;childLayout=stackLayout;horizontal=1;startSize=26;fillColor=none;horizontalStack=0;resizeParent=1;resizeParentMax=0;resizeLast=0;collapsible=1;marginBottom=0;" vertex="1" parent="1">
          <mxGeometry x="-680" y="-258" width="160" height="52" as="geometry" />
        </mxCell>
        <mxCell id="5tpcHCuhw4KkP-4gjfUr-24" value="+ name" style="text;strokeColor=none;fillColor=none;align=left;verticalAlign=top;spacingLeft=4;spacingRight=4;overflow=hidden;rotatable=0;points=[[0,0.5],[1,0.5]];portConstraint=eastwest;" vertex="1" parent="5tpcHCuhw4KkP-4gjfUr-23">
          <mxGeometry y="26" width="160" height="26" as="geometry" />
        </mxCell>
        <mxCell id="5tpcHCuhw4KkP-4gjfUr-37" style="edgeStyle=orthogonalEdgeStyle;rounded=0;orthogonalLoop=1;jettySize=auto;html=1;entryX=0.5;entryY=0;entryDx=0;entryDy=0;fontSize=15;exitX=0;exitY=0.5;exitDx=0;exitDy=0;" edge="1" parent="1" source="5tpcHCuhw4KkP-4gjfUr-22" target="5tpcHCuhw4KkP-4gjfUr-23">
          <mxGeometry relative="1" as="geometry" />
        </mxCell>
        <mxCell id="5tpcHCuhw4KkP-4gjfUr-40" value="0:N" style="edgeLabel;html=1;align=center;verticalAlign=middle;resizable=0;points=[];fontSize=15;" vertex="1" connectable="0" parent="5tpcHCuhw4KkP-4gjfUr-37">
          <mxGeometry x="0.1111" y="1" relative="1" as="geometry">
            <mxPoint as="offset" />
          </mxGeometry>
        </mxCell>
        <mxCell id="5tpcHCuhw4KkP-4gjfUr-39" style="edgeStyle=orthogonalEdgeStyle;rounded=0;orthogonalLoop=1;jettySize=auto;html=1;entryX=1;entryY=0.5;entryDx=0;entryDy=0;fontSize=15;" edge="1" parent="1" source="5tpcHCuhw4KkP-4gjfUr-33" target="5tpcHCuhw4KkP-4gjfUr-24">
          <mxGeometry relative="1" as="geometry" />
        </mxCell>
        <mxCell id="5tpcHCuhw4KkP-4gjfUr-33" value="Account" style="swimlane;fontStyle=0;childLayout=stackLayout;horizontal=1;startSize=26;fillColor=none;horizontalStack=0;resizeParent=1;resizeParentMax=0;resizeLast=0;collapsible=1;marginBottom=0;" vertex="1" parent="1">
          <mxGeometry x="-440" y="-258" width="140" height="78" as="geometry" />
        </mxCell>
        <mxCell id="5tpcHCuhw4KkP-4gjfUr-34" value="+ ID" style="text;strokeColor=none;fillColor=none;align=left;verticalAlign=top;spacingLeft=4;spacingRight=4;overflow=hidden;rotatable=0;points=[[0,0.5],[1,0.5]];portConstraint=eastwest;" vertex="1" parent="5tpcHCuhw4KkP-4gjfUr-33">
          <mxGeometry y="26" width="140" height="26" as="geometry" />
        </mxCell>
        <mxCell id="5tpcHCuhw4KkP-4gjfUr-35" value="+ secret" style="text;strokeColor=none;fillColor=none;align=left;verticalAlign=top;spacingLeft=4;spacingRight=4;overflow=hidden;rotatable=0;points=[[0,0.5],[1,0.5]];portConstraint=eastwest;" vertex="1" parent="5tpcHCuhw4KkP-4gjfUr-33">
          <mxGeometry y="52" width="140" height="26" as="geometry" />
        </mxCell>
        <mxCell id="5tpcHCuhw4KkP-4gjfUr-66" style="edgeStyle=orthogonalEdgeStyle;rounded=0;orthogonalLoop=1;jettySize=auto;html=1;entryX=0.5;entryY=0;entryDx=0;entryDy=0;fontSize=12;" edge="1" parent="1" source="5tpcHCuhw4KkP-4gjfUr-43" target="5tpcHCuhw4KkP-4gjfUr-62">
          <mxGeometry relative="1" as="geometry">
            <Array as="points">
              <mxPoint x="-260" y="-570" />
              <mxPoint x="-90" y="-570" />
            </Array>
          </mxGeometry>
        </mxCell>
        <mxCell id="5tpcHCuhw4KkP-4gjfUr-77" style="edgeStyle=orthogonalEdgeStyle;rounded=0;orthogonalLoop=1;jettySize=auto;html=1;entryX=1;entryY=0.5;entryDx=0;entryDy=0;fontSize=12;" edge="1" parent="1" source="5tpcHCuhw4KkP-4gjfUr-43" target="5tpcHCuhw4KkP-4gjfUr-74">
          <mxGeometry relative="1" as="geometry">
            <Array as="points">
              <mxPoint x="-420" y="-488" />
              <mxPoint x="-420" y="-488" />
            </Array>
          </mxGeometry>
        </mxCell>
        <mxCell id="5tpcHCuhw4KkP-4gjfUr-43" value="Transaction" style="swimlane;fontStyle=0;childLayout=stackLayout;horizontal=1;startSize=26;fillColor=none;horizontalStack=0;resizeParent=1;resizeParentMax=0;resizeLast=0;collapsible=1;marginBottom=0;fontSize=12;" vertex="1" parent="1">
          <mxGeometry x="-330" y="-530" width="140" height="260" as="geometry" />
        </mxCell>
        <mxCell id="5tpcHCuhw4KkP-4gjfUr-47" value="+ PSP_Id" style="text;strokeColor=none;fillColor=none;align=left;verticalAlign=top;spacingLeft=4;spacingRight=4;overflow=hidden;rotatable=0;points=[[0,0.5],[1,0.5]];portConstraint=eastwest;" vertex="1" parent="5tpcHCuhw4KkP-4gjfUr-43">
          <mxGeometry y="26" width="140" height="26" as="geometry" />
        </mxCell>
        <mxCell id="5tpcHCuhw4KkP-4gjfUr-51" value="+ amount" style="text;strokeColor=none;fillColor=none;align=left;verticalAlign=top;spacingLeft=4;spacingRight=4;overflow=hidden;rotatable=0;points=[[0,0.5],[1,0.5]];portConstraint=eastwest;" vertex="1" parent="5tpcHCuhw4KkP-4gjfUr-43">
          <mxGeometry y="52" width="140" height="26" as="geometry" />
        </mxCell>
        <mxCell id="5tpcHCuhw4KkP-4gjfUr-50" value="+ currency" style="text;strokeColor=none;fillColor=none;align=left;verticalAlign=top;spacingLeft=4;spacingRight=4;overflow=hidden;rotatable=0;points=[[0,0.5],[1,0.5]];portConstraint=eastwest;" vertex="1" parent="5tpcHCuhw4KkP-4gjfUr-43">
          <mxGeometry y="78" width="140" height="26" as="geometry" />
        </mxCell>
        <mxCell id="5tpcHCuhw4KkP-4gjfUr-53" value="+ successURL" style="text;strokeColor=none;fillColor=none;align=left;verticalAlign=top;spacingLeft=4;spacingRight=4;overflow=hidden;rotatable=0;points=[[0,0.5],[1,0.5]];portConstraint=eastwest;" vertex="1" parent="5tpcHCuhw4KkP-4gjfUr-43">
          <mxGeometry y="104" width="140" height="26" as="geometry" />
        </mxCell>
        <mxCell id="5tpcHCuhw4KkP-4gjfUr-52" value="+ failURL" style="text;strokeColor=none;fillColor=none;align=left;verticalAlign=top;spacingLeft=4;spacingRight=4;overflow=hidden;rotatable=0;points=[[0,0.5],[1,0.5]];portConstraint=eastwest;" vertex="1" parent="5tpcHCuhw4KkP-4gjfUr-43">
          <mxGeometry y="130" width="140" height="26" as="geometry" />
        </mxCell>
        <mxCell id="5tpcHCuhw4KkP-4gjfUr-54" value="+ errorURL" style="text;strokeColor=none;fillColor=none;align=left;verticalAlign=top;spacingLeft=4;spacingRight=4;overflow=hidden;rotatable=0;points=[[0,0.5],[1,0.5]];portConstraint=eastwest;" vertex="1" parent="5tpcHCuhw4KkP-4gjfUr-43">
          <mxGeometry y="156" width="140" height="26" as="geometry" />
        </mxCell>
        <mxCell id="5tpcHCuhw4KkP-4gjfUr-55" value="+ merchantOrderId" style="text;strokeColor=none;fillColor=none;align=left;verticalAlign=top;spacingLeft=4;spacingRight=4;overflow=hidden;rotatable=0;points=[[0,0.5],[1,0.5]];portConstraint=eastwest;" vertex="1" parent="5tpcHCuhw4KkP-4gjfUr-43">
          <mxGeometry y="182" width="140" height="26" as="geometry" />
        </mxCell>
        <mxCell id="5tpcHCuhw4KkP-4gjfUr-56" value="+ merchantTimestamp" style="text;strokeColor=none;fillColor=none;align=left;verticalAlign=top;spacingLeft=4;spacingRight=4;overflow=hidden;rotatable=0;points=[[0,0.5],[1,0.5]];portConstraint=eastwest;" vertex="1" parent="5tpcHCuhw4KkP-4gjfUr-43">
          <mxGeometry y="208" width="140" height="26" as="geometry" />
        </mxCell>
        <mxCell id="5tpcHCuhw4KkP-4gjfUr-57" value="+ currency" style="text;strokeColor=none;fillColor=none;align=left;verticalAlign=top;spacingLeft=4;spacingRight=4;overflow=hidden;rotatable=0;points=[[0,0.5],[1,0.5]];portConstraint=eastwest;" vertex="1" parent="5tpcHCuhw4KkP-4gjfUr-43">
          <mxGeometry y="234" width="140" height="26" as="geometry" />
        </mxCell>
        <mxCell id="5tpcHCuhw4KkP-4gjfUr-62" value="PaymentMode" style="swimlane;fontStyle=0;childLayout=stackLayout;horizontal=1;startSize=26;fillColor=none;horizontalStack=0;resizeParent=1;resizeParentMax=0;resizeLast=0;collapsible=1;marginBottom=0;fontSize=12;" vertex="1" parent="1">
          <mxGeometry x="-160" y="-530" width="140" height="78" as="geometry" />
        </mxCell>
        <mxCell id="5tpcHCuhw4KkP-4gjfUr-63" value="+ ONE_TIME" style="text;strokeColor=none;fillColor=none;align=left;verticalAlign=top;spacingLeft=4;spacingRight=4;overflow=hidden;rotatable=0;points=[[0,0.5],[1,0.5]];portConstraint=eastwest;fontSize=12;" vertex="1" parent="5tpcHCuhw4KkP-4gjfUr-62">
          <mxGeometry y="26" width="140" height="26" as="geometry" />
        </mxCell>
        <mxCell id="5tpcHCuhw4KkP-4gjfUr-64" value="+ RECURRING" style="text;strokeColor=none;fillColor=none;align=left;verticalAlign=top;spacingLeft=4;spacingRight=4;overflow=hidden;rotatable=0;points=[[0,0.5],[1,0.5]];portConstraint=eastwest;fontSize=12;" vertex="1" parent="5tpcHCuhw4KkP-4gjfUr-62">
          <mxGeometry y="52" width="140" height="26" as="geometry" />
        </mxCell>
        <mxCell id="5tpcHCuhw4KkP-4gjfUr-67" value="RecurringType" style="swimlane;fontStyle=0;childLayout=stackLayout;horizontal=1;startSize=26;fillColor=none;horizontalStack=0;resizeParent=1;resizeParentMax=0;resizeLast=0;collapsible=1;marginBottom=0;fontSize=12;" vertex="1" parent="1">
          <mxGeometry x="-520" y="-628" width="140" height="78" as="geometry" />
        </mxCell>
        <mxCell id="5tpcHCuhw4KkP-4gjfUr-68" value="+ MONTHLY" style="text;strokeColor=none;fillColor=none;align=left;verticalAlign=top;spacingLeft=4;spacingRight=4;overflow=hidden;rotatable=0;points=[[0,0.5],[1,0.5]];portConstraint=eastwest;fontSize=12;" vertex="1" parent="5tpcHCuhw4KkP-4gjfUr-67">
          <mxGeometry y="26" width="140" height="26" as="geometry" />
        </mxCell>
        <mxCell id="5tpcHCuhw4KkP-4gjfUr-69" value="+ YEARLY" style="text;strokeColor=none;fillColor=none;align=left;verticalAlign=top;spacingLeft=4;spacingRight=4;overflow=hidden;rotatable=0;points=[[0,0.5],[1,0.5]];portConstraint=eastwest;fontSize=12;" vertex="1" parent="5tpcHCuhw4KkP-4gjfUr-67">
          <mxGeometry y="52" width="140" height="26" as="geometry" />
        </mxCell>
        <mxCell id="5tpcHCuhw4KkP-4gjfUr-76" style="edgeStyle=orthogonalEdgeStyle;rounded=0;orthogonalLoop=1;jettySize=auto;html=1;entryX=0;entryY=0.25;entryDx=0;entryDy=0;fontSize=12;" edge="1" parent="1" source="5tpcHCuhw4KkP-4gjfUr-72" target="5tpcHCuhw4KkP-4gjfUr-67">
          <mxGeometry relative="1" as="geometry">
            <Array as="points">
              <mxPoint x="-575" y="-520" />
              <mxPoint x="-575" y="-608" />
            </Array>
          </mxGeometry>
        </mxCell>
        <mxCell id="5tpcHCuhw4KkP-4gjfUr-72" value="Reccuring" style="swimlane;fontStyle=0;childLayout=stackLayout;horizontal=1;startSize=26;fillColor=none;horizontalStack=0;resizeParent=1;resizeParentMax=0;resizeLast=0;collapsible=1;marginBottom=0;fontSize=12;" vertex="1" parent="1">
          <mxGeometry x="-800" y="-553" width="170" height="104" as="geometry" />
        </mxCell>
        <mxCell id="5tpcHCuhw4KkP-4gjfUr-73" value="+ isSubscription" style="text;strokeColor=none;fillColor=none;align=left;verticalAlign=top;spacingLeft=4;spacingRight=4;overflow=hidden;rotatable=0;points=[[0,0.5],[1,0.5]];portConstraint=eastwest;fontSize=12;" vertex="1" parent="5tpcHCuhw4KkP-4gjfUr-72">
          <mxGeometry y="26" width="170" height="26" as="geometry" />
        </mxCell>
        <mxCell id="5tpcHCuhw4KkP-4gjfUr-74" value="+ installmentCount" style="text;strokeColor=none;fillColor=none;align=left;verticalAlign=top;spacingLeft=4;spacingRight=4;overflow=hidden;rotatable=0;points=[[0,0.5],[1,0.5]];portConstraint=eastwest;fontSize=12;" vertex="1" parent="5tpcHCuhw4KkP-4gjfUr-72">
          <mxGeometry y="52" width="170" height="26" as="geometry" />
        </mxCell>
        <mxCell id="5tpcHCuhw4KkP-4gjfUr-75" value="+ delayedInstallmentCount" style="text;strokeColor=none;fillColor=none;align=left;verticalAlign=top;spacingLeft=4;spacingRight=4;overflow=hidden;rotatable=0;points=[[0,0.5],[1,0.5]];portConstraint=eastwest;fontSize=12;" vertex="1" parent="5tpcHCuhw4KkP-4gjfUr-72">
          <mxGeometry y="78" width="170" height="26" as="geometry" />
        </mxCell>
      </root>
    </mxGraphModel>
  </diagram>
</mxfile>
